# xmcd CD database file
#
# Track frame offsets:
#	150
#	37582
#	60633
#	92099
#	116463
#	150443
#
# Disc length: 2431 seconds
#
# Revision: 2
# Processed by: cddbd v1.4b41PL1 Copyright (c) Steve Scherf et al.
# Submitted via: Feurio! 1.50.2ß - http://www.feurio.com
#
DISCID=38097d06
DTITLE=Oscar Peterson - Skol
DYEAR=1900
DGENRE=
TTITLE0=Nuages
TTITLE1=How about you
TTITLE2=Someone to watch over me
TTITLE3=Makin' whoopee
TTITLE4=That's all
TTITLE5=Skol blues
EXTD=
EXTT0=
EXTT1=
EXTT2=
EXTT3=
EXTT4=
EXTT5=
PLAYORDER=
